<?xml version="1.0" standalone="no"?>
<!DOCTYPE svg PUBLIC "-//W3C//DTD SVG 20010904//EN"
 "http://www.w3.org/TR/2001/REC-SVG-20010904/DTD/svg10.dtd">
<svg version="1.0" xmlns="http://www.w3.org/2000/svg"
 width="500.000000pt" height="500.000000pt" viewBox="0 0 500.000000 500.000000"
 preserveAspectRatio="xMidYMid meet">
<metadata>
Created by potrace 1.16, written by Peter Selinger 2001-2019
</metadata>
<g transform="translate(0.000000,500.000000) scale(0.100000,-0.100000)"
fill="#000000" stroke="none">
<path d="M980 2894 c-115 -31 -212 -112 -263 -222 -40 -86 -49 -210 -22 -293
101 -306 484 -388 698 -150 21 23 45 57 54 76 l17 35 73 0 72 0 3 -107 c2 -74
7 -108 16 -111 9 -3 12 77 12 378 0 301 -3 381 -12 378 -9 -3 -14 -37 -16
-111 l-3 -107 -72 0 -72 0 -30 51 c-91 154 -280 230 -455 183z m243 -46 c63
-23 145 -89 182 -147 41 -67 58 -136 53 -225 -17 -315 -390 -467 -623 -254
-104 95 -148 243 -110 374 63 220 282 331 498 252z"/>
<path d="M930 2712 c0 -4 18 -25 40 -47 21 -21 37 -42 33 -48 -3 -5 -24 10
-47 32 -23 23 -45 41 -49 41 -17 0 -4 -27 30 -62 48 -49 34 -63 -15 -15 -34
33 -62 47 -62 31 0 -9 138 -144 148 -144 4 0 13 5 20 12 18 18 24 4 9 -25 -8
-15 -16 -25 -19 -22 -2 3 -37 -28 -76 -69 -50 -51 -70 -79 -66 -90 12 -32 47
-15 126 64 45 44 84 80 87 80 4 0 44 -38 91 -85 83 -83 115 -101 127 -69 7 19
-157 189 -168 173 -3 -6 -9 1 -11 15 -7 33 8 46 43 39 42 -8 77 20 106 83 46
101 10 131 -95 78 -60 -30 -75 -51 -70 -101 2 -25 -2 -39 -14 -46 -23 -15 -32
-3 -18 23 10 19 4 28 -56 90 -60 63 -94 85 -94 62z"/>
<path d="M2170 2830 c0 -5 9 -10 20 -10 19 0 20 -7 20 -164 0 -155 -1 -164
-20 -169 -11 -3 -20 -10 -20 -16 0 -7 25 -11 65 -11 51 0 65 3 65 15 0 8 -9
15 -20 15 -18 0 -20 7 -20 80 0 73 3 83 25 105 29 30 49 31 75 5 17 -17 20
-33 20 -105 0 -78 -2 -85 -20 -85 -11 0 -20 -7 -20 -15 0 -12 13 -15 60 -15
47 0 60 3 60 15 0 8 -9 15 -20 15 -19 0 -20 7 -20 95 0 88 -2 98 -25 120 -15
16 -36 25 -55 25 -19 0 -40 -9 -55 -25 l-25 -24 0 79 0 80 -45 0 c-25 0 -45
-4 -45 -10z"/>
<path d="M3080 2830 c0 -5 9 -10 20 -10 19 0 20 -7 20 -165 0 -158 -1 -165
-20 -165 -11 0 -20 -7 -20 -15 0 -12 14 -15 65 -15 40 0 65 4 65 11 0 6 -9 13
-20 16 -33 9 -23 103 10 103 4 0 22 -21 40 -46 29 -41 31 -48 17 -56 -33 -18
-16 -28 48 -28 51 0 65 3 65 15 0 8 -9 15 -19 15 -13 0 -37 23 -67 66 l-47 65
39 40 c22 23 47 39 61 39 13 0 23 5 23 10 0 6 -27 10 -60 10 -33 0 -60 -4 -60
-10 0 -5 7 -10 15 -10 24 0 16 -12 -36 -59 l-49 -44 0 122 0 121 -45 0 c-25 0
-45 -4 -45 -10z"/>
<path d="M1880 2808 c-65 -45 -96 -119 -83 -198 24 -146 196 -208 291 -106 37
41 40 56 13 56 -11 0 -27 -13 -37 -29 -30 -50 -96 -66 -153 -36 -77 39 -83
228 -9 290 28 24 39 27 82 22 38 -3 55 -11 73 -31 13 -15 23 -34 23 -42 0 -8
7 -14 15 -14 11 0 15 12 15 44 0 43 0 44 -44 55 -75 19 -148 14 -186 -11z"/>
<path d="M4170 2760 c0 -33 -3 -40 -20 -40 -11 0 -20 -4 -20 -10 0 -5 9 -10
20 -10 19 0 20 -7 20 -103 0 -124 8 -142 70 -142 42 0 70 21 70 52 0 21 -28
15 -35 -7 -8 -24 -50 -27 -59 -4 -3 9 -6 58 -6 110 l0 94 45 0 c25 0 45 5 45
10 0 6 -20 10 -45 10 l-45 0 0 40 c0 33 -3 40 -20 40 -17 0 -20 -7 -20 -40z"/>
<path d="M2574 2714 c-43 -21 -64 -62 -64 -127 0 -45 5 -61 26 -86 58 -69 179
-57 207 22 5 12 1 17 -13 17 -11 0 -20 -4 -20 -10 0 -22 -41 -50 -74 -50 -41
0 -76 37 -76 81 l0 29 95 0 95 0 0 25 c0 42 -29 85 -65 101 -43 18 -72 17
-111 -2z"/>
<path d="M2874 2714 c-43 -21 -64 -62 -64 -127 0 -41 5 -61 22 -82 48 -62 137
-68 183 -13 30 36 31 48 5 48 -11 0 -20 -6 -20 -13 0 -23 -35 -47 -68 -47 -46
0 -72 39 -72 107 0 65 20 108 54 117 36 9 74 -9 82 -39 10 -38 34 -32 34 10 0
31 -3 35 -37 44 -51 15 -82 13 -119 -5z"/>
<path d="M3604 2714 c-43 -21 -64 -62 -64 -127 0 -45 5 -61 26 -86 58 -69 179
-57 207 22 5 12 1 17 -13 17 -11 0 -20 -4 -20 -10 0 -22 -41 -50 -74 -50 -41
0 -76 37 -76 81 l0 29 95 0 95 0 0 25 c0 42 -29 85 -65 101 -43 18 -72 17
-111 -2z"/>
<path d="M3890 2722 c-17 -6 -26 -16 -28 -35 -4 -33 4 -34 28 -5 12 16 28 22
55 22 41 0 65 -22 65 -61 0 -21 -4 -23 -59 -23 -75 0 -111 -25 -111 -76 0 -50
15 -72 58 -85 31 -9 45 -8 75 5 20 8 37 11 37 5 0 -5 20 -9 45 -9 45 0 62 17
26 27 -16 4 -19 17 -23 94 -4 80 -7 93 -30 115 -27 28 -91 40 -138 26z"/>
</g>
</svg>
